<?xml version="1.0" encoding="UTF-8"?>
<!DOCTYPE svg PUBLIC "-//W3C//DTD SVG 1.1//EN" "http://www.w3.org/Graphics/SVG/1.1/DTD/svg11.dtd">

<svg xmlns="http://www.w3.org/2000/svg" version="1.1" xmlns:xlink="http://www.w3.org/1999/xlink"
     xmlns:svgjs="http://svgjs.com/svgjs" width="400" height="200" viewBox="0 -5 150 165">
<g class="signage-logo" opacity="1">
    <defs id="SvgjsDefs1106"></defs>
    <g id="SvgjsG1107" transform="scale(0.8754337925415019)" opacity="1">
        <g id="SvgjsG1108" class="ATkZ2J73bL" transform="translate(43.29081172431121, 0) scale(0.29506119114524293)"
           light-content="false" non-strokable="false" fill="#630bbc">
            <path
                d="M219.6 48.1c-22.9-22.9-53.4-35.5-85.8-35.5S71 25.2 48.1 48.1s-35.5 53.4-35.5 85.8 12.6 62.9 35.5 85.8 53.4 35.5 85.8 35.5 62.9-12.6 85.8-35.5 35.5-53.4 35.5-85.8-12.7-62.9-35.6-85.8z"></path>
            <path
                d="M133.8 0C59.9 0 0 59.9 0 133.8s59.9 133.8 133.8 133.8 133.8-59.9 133.8-133.8S207.8 0 133.8 0zm0 260.1c-69.7 0-126.3-56.5-126.3-126.3S64.1 7.6 133.8 7.6s126.3 56.5 126.3 126.3-56.5 126.2-126.3 126.2z"></path>
        </g>
        <g id="SvgjsG1109" class="RakP9uGI3d"
           transform="translate(62.35981412280791, 19.069951078052778) scale(0.4081914707408735)" light-content="true"
           non-strokable="false" fill="#ffffff">
            <path
                d="M72.062 59.246c-2.914-.816-7.215-1.55-12.668-2.29a1.495 1.495 0 0 1 .207-2.977c9.098.064 16.664.798 21.961 2.033 5.945 1.382 9.328 3.581 9.328 6.402 0 3.191-4.727 5.863-12.609 7.582-1.066.234-2.2.453-3.387.656.555.125 1.082.258 1.575.398 4.07 1.145 6.273 2.899 6.273 5.114 0 2.715-3.809 4.96-10.215 6.37-.613.134-1.254.267-1.918.388.2.066.395.136.582.207 3.14 1.18 4.777 2.898 4.777 5.015 0 2.664-3.015 4.903-8.144 6.34-4.442 1.242-10.63 2.012-17.824 2.012-7.156 0-13.316-.762-17.754-1.992l-.07-.02c-5.13-1.437-8.145-3.676-8.145-6.34 0-2.117 1.637-3.836 4.777-5.015.188-.07.383-.141.582-.207a56.95 56.95 0 0 1-1.914-.387c-6.406-1.41-10.215-3.656-10.215-6.371 0-2.219 2.203-3.969 6.274-5.114.492-.14 1.02-.273 1.574-.398a86.098 86.098 0 0 1-3.387-.656c-7.883-1.719-12.609-4.39-12.609-7.582 0-2.817 3.383-5.016 9.328-6.403 5.281-1.23 12.82-1.964 21.887-2.03a1.497 1.497 0 0 1 .282 2.976c-5.457.738-9.758 1.469-12.672 2.289-2.27.637-3.489 1.125-3.489 1.457 0 .637 2.446 1.441 6.59 2.234 4.684.899 11.273 1.453 18.965 1.453s14.281-.554 18.965-1.453c4.145-.793 6.59-1.597 6.59-2.234 0-.332-1.223-.82-3.488-1.457zM54.816 30.137c-.77.48-1.488 1.012-2.129 1.602-1.914 1.761-3.137 4.054-3.094 6.941.035 2.36 1.203 4.926 2.32 7.383.91 2.004 1.801 3.949 2.192 5.808.93-2.257.074-4.187-.898-6.386-.696-1.567-1.442-3.243-1.848-5.215-.508-2.453.273-5.48 2.207-8.434.37-.566.789-1.136 1.25-1.699zm-4.152-.605c2.902-2.672 7.023-4.34 11.094-5.18a1.496 1.496 0 0 1 1.125 2.73c-3.024 1.864-5.324 4.133-6.805 6.395-1.5 2.293-2.133 4.512-1.785 6.183.347 1.688 1.023 3.204 1.648 4.618 2.137 4.816 3.848 8.675-4.386 14.824-.32.257-.672.515-1.06.765a1.499 1.499 0 0 1-2.07-.437 1.499 1.499 0 0 1 .438-2.07l.508-.364c3.121-2.453 1.531-5.945-.176-9.691-1.246-2.739-2.547-5.594-2.59-8.59-.058-3.844 1.547-6.871 4.055-9.18zm-4.301 21.363c-2.121-.672-4.05-1.512-5.746-2.504l-.082-.055c-3.07-1.809-5.399-4.125-6.723-6.828-1.371-2.801-1.66-5.969-.586-9.371a18.089 18.089 0 0 1 1.649-3.672c2.035-3.488 5.41-6.117 8.652-8.645 5.156-4.015 9.945-7.75 6.613-14.133a1.494 1.494 0 0 1 .633-2.015 1.49 1.49 0 0 1 1.902.453c9.371 12.996 3.574 17.797-3.07 23.293-1.777 1.469-3.629 3.004-5.14 4.73-1.75 2.004-2.59 4.707-2.02 7.672.52 2.707 2.21 5.656 5.426 8.551.613.555.664 1.5.113 2.117a1.51 1.51 0 0 1-1.621.41zm-9.871-10.7c.98 2 2.703 3.77 4.996 5.223-1.023-1.703-1.672-3.394-1.988-5.035-.758-3.926.367-7.52 2.707-10.199 1.695-1.941 3.625-3.54 5.48-5.07 4.098-3.39 7.805-6.461 6.219-12.25-1.254 3.636-4.82 6.414-8.547 9.316-3.012 2.344-6.148 4.785-7.902 7.8a14.926 14.926 0 0 0-1.38 3.052c-.827 2.636-.62 5.054.415 7.168zM57.41 84.369c-2.36.117-4.84.18-7.414.18s-5.055-.063-7.414-.18c-2.97.527-5.106 1.058-6.461 1.632-.856.364-1.262.618-1.262.785 0 .403 1.313.95 3.61 1.52 2.777.691 6.742 1.117 11.526 1.117s8.747-.426 11.527-1.117c2.297-.57 3.61-1.117 3.61-1.52 0-.164-.406-.417-1.262-.785-1.355-.578-3.488-1.105-6.457-1.632zm-25.11.847a19.91 19.91 0 0 0-2.452.719c-1.856.695-2.824 1.453-2.824 2.215 0 1.176 2.203 2.41 5.953 3.457l.058.02c4.176 1.16 10.055 1.874 16.957 1.874 6.934 0 12.836-.722 17.016-1.89 3.75-1.051 5.953-2.282 5.953-3.457 0-.758-.968-1.52-2.824-2.215a19.446 19.446 0 0 0-2.453-.719c.297.477.441.996.441 1.57 0 1.926-2.14 3.493-5.894 4.426-3.016.75-7.227 1.211-12.242 1.211s-9.23-.46-12.242-1.21c-3.75-.934-5.895-2.5-5.895-4.427 0-.57.145-1.093.442-1.57zm26.69-12.919c-2.871.137-5.88.211-8.992.211-3.114 0-6.121-.074-8.993-.21l-.148.027c-3.836.539-6.727 1.082-8.64 1.671l-.11.04c-1.309.414-1.973.667-1.973.761 0 .36 1.813.899 4.918 1.504 3.656.711 8.824 1.149 14.945 1.149 6.117 0 11.29-.438 14.945-1.149 3.11-.605 4.918-1.148 4.918-1.504 0-.094-.66-.347-1.972-.762-1.915-.613-4.84-1.164-8.75-1.71zm-31.29.895a35.385 35.385 0 0 0-3.363.742c-2.648.746-4.078 1.516-4.078 2.23 0 1.125 2.93 2.36 7.86 3.442C33.555 80.8 41.177 81.543 50 81.543s16.445-.738 21.883-1.937c4.926-1.086 7.86-2.317 7.86-3.442 0-.718-1.434-1.488-4.079-2.23a32.89 32.89 0 0 0-3.363-.742c.375.48.566 1.011.566 1.605 0 1.977-2.707 3.543-7.355 4.446-3.844.746-9.211 1.207-15.504 1.207-6.293 0-11.664-.461-15.504-1.207-4.649-.903-7.356-2.473-7.356-4.446 0-.594.188-1.125.567-1.605zm49.396-14.988c.96.715 1.457 1.539 1.457 2.5 0 2.265-3.352 4.09-9.028 5.176-4.875.933-11.664 1.511-19.527 1.511-7.863 0-14.652-.578-19.527-1.511-5.675-1.086-9.027-2.915-9.027-5.176 0-.961.496-1.785 1.457-2.5-1.367.218-2.633.46-3.781.73-4.465 1.04-7.008 2.25-7.008 3.485 0 1.597 3.84 3.257 10.242 4.652 6.91 1.508 16.566 2.437 27.648 2.437s20.738-.93 27.648-2.437c6.402-1.395 10.242-3.059 10.242-4.652 0-1.235-2.543-2.446-7.008-3.485a54.499 54.499 0 0 0-3.78-.73z"></path>
        </g>
        <g id="SvgjsG1110" class="text" transform="translate(82.26000213623047, 131.43837609361395) scale(1)"
           light-content="false" fill="#FF382E">
            <path
                d="M-82.26 -16.38C-82.26 -5.14 -77.26 0.48 -67.26 0.48C-65.14 0.48 -63.5 0.2 -62.34 -0.36C-60.74 -1.2 -59.94 -2.7 -59.94 -4.86C-59.94 -5.94 -60.1 -6.8 -60.42 -7.44C-60.74 -8.08 -61.22 -8.4 -61.86 -8.4C-62.1 -8.4 -62.28 -8.38 -62.4 -8.34C-63.04 -8.14 -63.68 -7.98 -64.32 -7.86C-64.96 -7.74 -65.66 -7.68 -66.42 -7.68C-70.58 -7.68 -72.66 -10.88 -72.66 -17.28C-72.66 -18.44 -72.6 -19.7 -72.48 -21.06C-72 -25.54 -71.05 -28.88 -69.63 -31.08C-68.21 -33.28 -66.3 -34.38 -63.9 -34.38C-62.66 -34.38 -61.4 -34.18 -60.12 -33.78C-59.4 -33.5 -58.71 -33.92 -58.05 -35.04C-57.39 -36.16 -56.96 -37.48 -56.76 -39C-56.72 -39.16 -56.7 -39.38 -56.7 -39.66C-56.7 -40.78 -57.24 -41.5 -58.32 -41.82C-59.92 -42.26 -61.64 -42.48 -63.48 -42.48C-69.04 -42.48 -73.33 -40.72 -76.35 -37.2C-79.37 -33.68 -81.26 -28.32 -82.02 -21.12C-82.18 -19.64 -82.26 -18.06 -82.26 -16.38Z M-58.68 -1.2C-58.76 -0.32 -57.84 0.12 -55.92 0.12L-52.8 0.12C-51.04 0.12 -50.06 -0.3 -49.86 -1.14L-47.46 -8.46L-38.1 -8.46L-37.32 -1.14C-37.16 -0.3 -36.14 0.12 -34.26 0.12L-31.32 0.12C-29.6 0.12 -28.7 -0.32 -28.62 -1.2C-28.58 -1.32 -28.56 -1.48 -28.56 -1.68C-28.56 -1.96 -28.58 -2.16 -28.62 -2.28L-34.2 -40.44C-34.36 -41.56 -35.54 -42.12 -37.74 -42.12L-41.1 -42.12C-43.26 -42.12 -44.54 -41.56 -44.94 -40.44L-58.38 -2.28C-58.5 -2.04 -58.6 -1.68 -58.68 -1.2ZM-38.58 -15.78L-45.66 -15.78L-41.58 -28.5C-41.3 -29.38 -40.9 -30.9 -40.38 -33.06L-40.08 -33.06C-40.08 -32.02 -40 -30.5 -39.84 -28.5Z M-8.55 -13.71C-8.21 -13.49 -7.74 -13.38 -7.14 -13.38L-6.12 -13.38C-5.48 -13.38 -4.98 -13.49 -4.62 -13.71C-4.26 -13.93 -3.92 -14.3 -3.6 -14.82L1.74 -23.1C2.3 -23.94 2.84 -24.88 3.36 -25.92L3.6 -25.86C3.2 -24.62 2.94 -23.52 2.82 -22.56L0.66 -1.8C0.58 -1.12 0.79 -0.63 1.29 -0.33C1.79 -0.03 2.66 0.12 3.9 0.12L5.94 0.12C7.14 0.12 8.04 -0.03 8.64 -0.33C9.24 -0.63 9.58 -1.12 9.66 -1.8L13.68 -40.2C13.76 -40.88 13.54 -41.37 13.02 -41.67C12.5 -41.97 11.62 -42.12 10.38 -42.12L8.52 -42.12C7.56 -42.12 6.79 -41.99 6.21 -41.73C5.63 -41.47 5.14 -41.04 4.74 -40.44L-4.14 -26.34C-4.74 -25.42 -5.2 -24.46 -5.52 -23.46C-5.88 -24.86 -6.16 -25.82 -6.36 -26.34L-12.36 -40.44C-12.64 -41.04 -13.04 -41.47 -13.56 -41.73C-14.08 -41.99 -14.82 -42.12 -15.78 -42.12L-17.64 -42.12C-18.88 -42.12 -19.78 -41.97 -20.34 -41.67C-20.9 -41.37 -21.22 -40.88 -21.3 -40.2L-25.32 -1.8C-25.4 -1.12 -25.19 -0.63 -24.69 -0.33C-24.19 -0.03 -23.32 0.12 -22.08 0.12L-20.04 0.12C-18.84 0.12 -17.94 -0.03 -17.34 -0.33C-16.74 -0.63 -16.4 -1.12 -16.32 -1.8L-14.16 -22.56C-14.12 -22.88 -14.1 -23.34 -14.1 -23.94C-14.1 -24.82 -14.12 -25.46 -14.16 -25.86L-13.92 -25.92C-13.52 -24.64 -13.2 -23.7 -12.96 -23.1L-9.42 -14.82C-9.18 -14.3 -8.89 -13.93 -8.55 -13.71Z M16.02 -1.8C15.9 -0.48 17 0.18 19.32 0.18L21.84 0.18C24.12 0.18 25.32 -0.48 25.44 -1.8L29.52 -40.2C29.64 -41.52 28.56 -42.18 26.28 -42.18L23.76 -42.18C21.44 -42.18 20.22 -41.52 20.1 -40.2Z M32.43 -0.57C32.73 -0.19 33.28 0 34.08 0L50.16 0C50.8 0 51.29 -0.24 51.63 -0.72C51.97 -1.2 52.18 -1.96 52.26 -3L52.5 -4.86L52.56 -5.7C52.56 -6.46 52.44 -7.01 52.2 -7.35C51.96 -7.69 51.56 -7.86 51 -7.86L42.06 -7.86L45.48 -40.2C45.6 -41.48 44.5 -42.12 42.18 -42.12L39.78 -42.12C37.46 -42.12 36.24 -41.48 36.12 -40.2L32.1 -2.4C32.02 -1.56 32.13 -0.95 32.43 -0.57Z M53.16 -1.2C53.08 -0.32 54 0.12 55.92 0.12L59.04 0.12C60.8 0.12 61.78 -0.3 61.98 -1.14L64.38 -8.46L73.74 -8.46L74.52 -1.14C74.68 -0.3 75.7 0.12 77.58 0.12L80.52 0.12C82.24 0.12 83.14 -0.32 83.22 -1.2C83.26 -1.32 83.28 -1.48 83.28 -1.68C83.28 -1.96 83.26 -2.16 83.22 -2.28L77.64 -40.44C77.48 -41.56 76.3 -42.12 74.1 -42.12L70.74 -42.12C68.58 -42.12 67.3 -41.56 66.9 -40.44L53.46 -2.28C53.34 -2.04 53.24 -1.68 53.16 -1.2ZM73.26 -15.78L66.18 -15.78L70.26 -28.5C70.54 -29.38 70.94 -30.9 71.46 -33.06L71.76 -33.06C71.76 -32.02 71.84 -30.5 72 -28.5Z"></path>
        </g>
        <g id="SvgjsG1111" class="text" transform="translate(82.957076171875, 167.61797145216147) scale(1)"
           light-content="false" fill="#FF382E">
            <path
                d="M-63.91 -0.3C-62.76 0.1 -61.5 0.3 -60.14 0.3C-57.3 0.3 -55.07 -0.48 -53.45 -2.06C-51.83 -3.63 -51.02 -5.83 -51.02 -8.67C-51.02 -10.21 -51.36 -11.43 -52.04 -12.35C-52.72 -13.27 -53.82 -14.22 -55.36 -15.2C-55.53 -15.32 -55.91 -15.57 -56.49 -15.93C-57.06 -16.3 -57.58 -16.72 -58.03 -17.21C-58.48 -17.7 -58.71 -18.35 -58.71 -19.16C-58.71 -19.76 -58.52 -20.34 -58.15 -20.89C-57.77 -21.44 -56.99 -21.72 -55.81 -21.72C-55.18 -21.72 -54.39 -21.54 -53.43 -21.19C-52.9 -21.02 -52.53 -20.93 -52.3 -20.93C-51.82 -20.93 -51.42 -21.32 -51.09 -22.12C-50.77 -22.91 -50.6 -23.64 -50.6 -24.32C-50.6 -24.85 -50.91 -25.29 -51.51 -25.64C-52.06 -25.97 -52.77 -26.23 -53.64 -26.41C-54.51 -26.6 -55.34 -26.7 -56.15 -26.7C-57.73 -26.7 -59.16 -26.36 -60.45 -25.68C-61.73 -25 -62.74 -24.01 -63.48 -22.72C-64.22 -21.42 -64.59 -19.91 -64.59 -18.18C-64.59 -16.59 -64.27 -15.33 -63.63 -14.4C-62.99 -13.47 -61.95 -12.56 -60.52 -11.65C-60.45 -11.6 -60.35 -11.54 -60.24 -11.48C-60.13 -11.42 -60.01 -11.34 -59.88 -11.24C-58.85 -10.58 -58.1 -10.02 -57.62 -9.56C-57.14 -9.09 -56.9 -8.48 -56.9 -7.73C-56.9 -6.65 -57.2 -5.86 -57.81 -5.37C-58.41 -4.88 -59.13 -4.64 -59.96 -4.64C-60.63 -4.64 -61.23 -4.73 -61.75 -4.92C-62.26 -5.11 -62.93 -5.43 -63.76 -5.88C-64.07 -6.06 -64.3 -6.15 -64.48 -6.15C-64.98 -6.15 -65.44 -5.72 -65.84 -4.86C-66.24 -4.01 -66.43 -3.22 -66.4 -2.49C-66.4 -2.04 -66.16 -1.62 -65.67 -1.24C-65.18 -0.87 -64.59 -0.55 -63.91 -0.3Z M-48.59 -0.36C-48.4 -0.12 -48.05 0 -47.55 0L-36.39 0C-35.63 0 -35.21 -0.63 -35.11 -1.89L-34.99 -3.05L-34.96 -3.62C-34.96 -4.07 -35.02 -4.41 -35.16 -4.62C-35.3 -4.83 -35.53 -4.94 -35.86 -4.94L-42.53 -4.94L-41.89 -11.05L-36.01 -11.05C-35.23 -11.05 -34.79 -11.68 -34.69 -12.93L-34.58 -14.1L-34.54 -14.63C-34.54 -15.54 -34.85 -15.99 -35.48 -15.99L-41.37 -15.99L-40.8 -21.46L-34.16 -21.46C-33.38 -21.46 -32.94 -22.08 -32.84 -23.34L-32.73 -24.51L-32.69 -25.04C-32.69 -25.94 -33.01 -26.4 -33.64 -26.4L-44.76 -26.4C-45.24 -26.4 -45.6 -26.28 -45.85 -26.04C-46.1 -25.8 -46.25 -25.42 -46.31 -24.89L-48.79 -1.51C-48.84 -0.98 -48.78 -0.6 -48.59 -0.36Z M-31.71 -1.13C-31.79 -0.33 -31.07 0.08 -29.56 0.08L-28.28 0.08C-26.77 0.08 -25.98 -0.33 -25.91 -1.13L-25 -9.65L-24.1 -9.65C-23.47 -9.65 -23.01 -9.54 -22.74 -9.31C-22.46 -9.09 -22.25 -8.7 -22.1 -8.14L-20.85 -0.98C-20.75 -0.3 -20.04 0.04 -18.7 0.04L-17.38 0.04C-15.82 0.04 -15.01 -0.3 -14.93 -0.98L-15.01 -1.43L-16.48 -8.67C-16.6 -9.48 -16.86 -10.23 -17.25 -10.94C-17.64 -11.64 -18.09 -12.14 -18.59 -12.44L-18.59 -12.59C-16.05 -13.88 -14.63 -16 -14.33 -18.97C-14.28 -19.57 -14.25 -20 -14.25 -20.25C-14.25 -22.44 -14.89 -24.01 -16.16 -24.96C-17.43 -25.92 -19.12 -26.4 -21.23 -26.4L-27.53 -26.4C-28.05 -26.4 -28.45 -26.28 -28.71 -26.04C-28.98 -25.8 -29.14 -25.42 -29.19 -24.89ZM-22.29 -15.16L-24.4 -15.16L-23.76 -21.46L-21.76 -21.46C-21.18 -21.46 -20.73 -21.27 -20.4 -20.89C-20.07 -20.51 -19.91 -19.91 -19.91 -19.08C-19.91 -18.78 -19.92 -18.55 -19.95 -18.4C-20.07 -17.35 -20.36 -16.54 -20.81 -15.99C-21.27 -15.44 -21.76 -15.16 -22.29 -15.16Z M-8.18 -0.72C-8.11 -0.19 -7.47 0.08 -6.26 0.08L-3.58 0.08C-2.38 0.08 -1.68 -0.19 -1.51 -0.72L6.9 -24.96L7.09 -25.64C7.14 -26.19 6.45 -26.47 5.02 -26.47L3.62 -26.47C2.39 -26.47 1.66 -26.11 1.43 -25.38L-3.7 -8.33L-4.34 -5.73L-4.49 -5.73L-4.52 -8.33L-6 -25.38C-6.07 -26.11 -6.72 -26.47 -7.96 -26.47L-9.39 -26.47C-10.85 -26.47 -11.6 -26.19 -11.65 -25.64C-11.68 -25.54 -11.67 -25.42 -11.63 -25.28C-11.6 -25.14 -11.58 -25.04 -11.58 -24.96Z M6.71 -1.13C6.64 -0.3 7.33 0.11 8.79 0.11L10.37 0.11C11.8 0.11 12.56 -0.3 12.63 -1.13L15.2 -25.26C15.27 -26.09 14.59 -26.51 13.16 -26.51L11.58 -26.51C10.12 -26.51 9.35 -26.09 9.28 -25.26Z M17.16 -10.29C17.16 -3.23 20.3 0.3 26.58 0.3C27.92 0.3 28.95 0.13 29.68 -0.23C30.68 -0.75 31.18 -1.7 31.18 -3.05C31.18 -3.73 31.08 -4.27 30.88 -4.68C30.68 -5.08 30.38 -5.28 29.98 -5.28C29.83 -5.28 29.71 -5.27 29.64 -5.24C29.24 -5.12 28.83 -5.02 28.43 -4.94C28.03 -4.86 27.59 -4.83 27.11 -4.83C24.5 -4.83 23.19 -6.84 23.19 -10.86C23.19 -11.59 23.23 -12.38 23.3 -13.24C23.61 -16.05 24.2 -18.15 25.09 -19.53C25.99 -20.92 27.19 -21.61 28.7 -21.61C29.47 -21.61 30.27 -21.48 31.07 -21.23C31.52 -21.05 31.96 -21.32 32.37 -22.02C32.79 -22.73 33.06 -23.55 33.18 -24.51C33.21 -24.61 33.22 -24.75 33.22 -24.92C33.22 -25.63 32.88 -26.08 32.2 -26.28C31.2 -26.56 30.12 -26.7 28.96 -26.7C25.47 -26.7 22.77 -25.59 20.87 -23.38C18.97 -21.17 17.79 -17.8 17.31 -13.27C17.21 -12.34 17.16 -11.35 17.16 -10.29Z M34.33 -0.36C34.52 -0.12 34.87 0 35.37 0L46.53 0C47.29 0 47.71 -0.63 47.81 -1.89L47.93 -3.05L47.96 -3.62C47.96 -4.07 47.9 -4.41 47.76 -4.62C47.62 -4.83 47.39 -4.94 47.06 -4.94L40.39 -4.94L41.03 -11.05L46.91 -11.05C47.69 -11.05 48.13 -11.68 48.23 -12.93L48.34 -14.1L48.38 -14.63C48.38 -15.54 48.06 -15.99 47.44 -15.99L41.55 -15.99L42.12 -21.46L48.76 -21.46C49.54 -21.46 49.98 -22.08 50.08 -23.34L50.19 -24.51L50.23 -25.04C50.23 -25.94 49.91 -26.4 49.28 -26.4L38.16 -26.4C37.68 -26.4 37.32 -26.28 37.07 -26.04C36.82 -25.8 36.66 -25.42 36.61 -24.89L34.13 -1.51C34.08 -0.98 34.14 -0.6 34.33 -0.36Z M52.72 -0.3C53.87 0.1 55.13 0.3 56.49 0.3C59.33 0.3 61.56 -0.48 63.18 -2.06C64.8 -3.63 65.61 -5.83 65.61 -8.67C65.61 -10.21 65.27 -11.43 64.59 -12.35C63.91 -13.27 62.81 -14.22 61.28 -15.2C61.1 -15.32 60.72 -15.57 60.14 -15.93C59.57 -16.3 59.05 -16.72 58.6 -17.21C58.15 -17.7 57.92 -18.35 57.92 -19.16C57.92 -19.76 58.11 -20.34 58.48 -20.89C58.86 -21.44 59.64 -21.72 60.82 -21.72C61.45 -21.72 62.24 -21.54 63.2 -21.19C63.73 -21.02 64.1 -20.93 64.33 -20.93C64.81 -20.93 65.21 -21.32 65.54 -22.12C65.86 -22.91 66.03 -23.64 66.03 -24.32C66.03 -24.85 65.72 -25.29 65.12 -25.64C64.57 -25.97 63.86 -26.23 62.99 -26.41C62.12 -26.6 61.29 -26.7 60.48 -26.7C58.9 -26.7 57.47 -26.36 56.18 -25.68C54.9 -25 53.89 -24.01 53.15 -22.72C52.41 -21.42 52.04 -19.91 52.04 -18.18C52.04 -16.59 52.36 -15.33 53 -14.4C53.64 -13.47 54.68 -12.56 56.11 -11.65C56.18 -11.6 56.28 -11.54 56.39 -11.48C56.51 -11.42 56.62 -11.34 56.75 -11.24C57.78 -10.58 58.54 -10.02 59.01 -9.56C59.49 -9.09 59.73 -8.48 59.73 -7.73C59.73 -6.65 59.43 -5.86 58.82 -5.37C58.22 -4.88 57.5 -4.64 56.67 -4.64C56 -4.64 55.4 -4.73 54.88 -4.92C54.37 -5.11 53.7 -5.43 52.87 -5.88C52.56 -6.06 52.33 -6.15 52.15 -6.15C51.65 -6.15 51.19 -5.72 50.79 -4.86C50.39 -4.01 50.2 -3.22 50.23 -2.49C50.23 -2.04 50.47 -1.62 50.96 -1.24C51.45 -0.87 52.04 -0.55 52.72 -0.3Z"></path>
        </g>
    </g>
</g>
</svg>